# xmcd
#
# Track frame offsets: 
#        150
#        15249
#        32167
#        48754
#        63710
#        77522
#        88334
#        113389
#        128159
#        141465
#        155111
#        175032
#
# Disc length: 2575 seconds
#
# Revision: 0
# Processed by: cddbd v1.5.2PL0 Copyright (c) Steve Scherf et al.
# Submitted via: ExactAudioCopy v1.3
#
DISCID=960a0d0c
DTITLE=Vin Mott - Rogue Hunter
DYEAR=2019
DGENRE=Blues
TTITLE0=Car Troubles Made Me a Good Blues Singer
TTITLE1=Give Me Cornbread
TTITLE2=Rogue Hunter
TTITLE3=Ice Cold Beer
TTITLE4=Honey
TTITLE5=Whistlin' by the Graveyard
TTITLE6=Paterson Is Crumblin'
TTITLE7=I Got the Blues on My Mind
TTITLE8=Countin' on Them Chickens
TTITLE9=Fire to Your Flame
TTITLE10=Please, Mr. Devil
TTITLE11=Greaser
EXTD=
EXTT0=
EXTT1=
EXTT2=
EXTT3=
EXTT4=
EXTT5=
EXTT6=
EXTT7=
EXTT8=
EXTT9=
EXTT10=
EXTT11=
PLAYORDER=
